<svg width="80" height="80" viewBox="0 0 80 80" fill="none" xmlns="http://www.w3.org/2000/svg">
<path fill-rule="evenodd" clip-rule="evenodd" d="M32.2873 78.9979C35.4442 79.6104 38.6483 79.846 41.4754 79.9874C46.1873 80.0816 50.4751 79.6576 54.5274 78.3854C58.6267 77.1603 62.302 75.1813 65.3647 72.2128C70.5949 67.0768 73.422 60.81 74.0345 53.5537C74.4115 48.9832 73.1864 44.7896 70.265 41.1615C67.6264 37.9103 64.2338 35.8842 60.2759 34.7062C60.0638 34.6355 59.84 34.5766 59.6162 34.5177C59.3924 34.4588 59.1686 34.3999 58.9565 34.3293C58.4853 34.1879 58.3911 33.8581 58.6738 33.3869C58.7445 33.2691 58.827 33.1513 58.9094 33.0335L58.9094 33.0335L58.9095 33.0334L58.9095 33.0334L58.9095 33.0333C58.9919 32.9156 59.0744 32.7978 59.145 32.6801C59.8047 31.7377 60.4696 30.7953 61.1345 29.8529L61.1347 29.8526C62.4644 27.968 63.7941 26.0833 65.082 24.1987C67.3908 20.8062 69.5111 17.3194 71.3488 13.6912C72.2912 11.8065 73.1393 9.82747 73.7518 7.80136C74.1288 6.57627 74.3173 5.35118 74.223 4.07898C74.1759 3.23084 73.9403 2.3827 73.422 1.67592C72.244 0.073877 70.265 -0.44443 68.3332 0.403709C67.3437 0.827778 66.4955 1.53456 65.6945 2.28846C64.1396 3.79626 62.8674 5.58678 61.6894 7.42441C59.4748 10.9112 57.543 14.5394 55.7996 18.3089C53.8677 22.5496 51.9829 26.7902 50.2867 31.1252L50.2866 31.1252L50.2866 31.1253C50.1453 31.4551 50.0039 31.7849 49.8155 32.0676C49.6741 32.3031 49.2972 32.3503 49.0616 32.1618C48.6846 31.832 48.449 31.455 48.4019 30.9838C48.3548 30.4184 48.3077 29.853 48.3548 29.2875C48.4385 28.4084 48.5594 27.5665 48.6845 26.6956L48.7317 26.3662C49.1087 23.1621 48.2134 20.4763 45.9046 18.2146C44.3968 16.8011 42.6534 15.9058 40.6744 15.3404C38.0358 14.6336 35.35 14.5865 32.6642 14.9163C28.1879 15.5288 23.9472 16.9895 20.0364 19.2512C16.8323 21.136 14.0523 23.539 11.7906 26.4604C8.63363 30.5597 6.93735 35.2245 6.27769 40.3605C5.75938 44.6012 5.99497 48.7476 6.74888 52.9412C7.92685 59.0666 10.6597 64.4382 14.7591 69.1029C19.4238 74.3803 25.3608 77.6315 32.2873 78.9979ZM46.847 34.9889C47.0355 35.1303 47.1297 35.3187 47.1297 35.6015C46.856 35.8751 46.5038 35.9722 46.1492 36.0699C45.9543 36.1237 45.7586 36.1776 45.5748 36.2611C44.1612 36.7323 42.9361 37.392 41.8524 38.3815C40.3917 39.7479 39.4965 41.3971 39.2137 43.3289C39.0724 44.3184 38.9781 45.2608 38.931 46.2503C38.8839 47.0985 38.7426 47.9466 38.4127 48.7476C37.9887 49.69 37.4232 50.0198 36.3866 49.9256C36.2453 49.9256 36.1039 49.8902 35.9625 49.8549C35.8212 49.8196 35.6798 49.7842 35.5385 49.7842C34.7846 49.7371 34.172 50.0669 33.8422 50.7266C33.4652 51.4334 33.6066 52.093 34.0778 52.6585L34.0778 52.6585C34.3605 52.9412 34.6432 53.2239 34.973 53.4595C39.2609 56.7107 44.5382 57.4175 49.4385 54.3548C51.7473 52.8941 53.6792 51.0093 55.0457 48.6063C56.6477 45.9205 56.9304 43.0934 55.3755 40.2662C54.9985 39.5594 54.9985 38.994 55.4226 38.3344C55.7524 37.8632 56.1765 37.6747 56.7419 37.7218C60.747 38.2401 64.1396 39.8422 66.9196 42.7164C69.464 45.4022 70.5949 48.6534 70.642 52.2815C70.642 54.072 70.4064 55.8154 69.9352 57.5588C68.7572 61.988 66.7783 65.946 63.5271 69.1972C60.323 72.4484 56.4121 74.3803 52.0301 75.464C47.9307 76.4535 43.7371 76.642 39.5436 76.3592C36.952 76.1708 34.3605 75.8881 31.8632 75.2755C22.6279 73.0138 16.2669 67.3595 12.356 58.7839C10.9425 55.6741 10.1885 52.3758 9.85872 48.9832C9.576 46.2974 9.52889 43.6117 9.85872 40.9259C10.8482 32.7743 14.8533 26.6018 21.9211 22.4553C25.9734 20.0523 30.3554 18.5445 35.1144 18.4031C36.7164 18.356 38.3185 18.4502 39.8734 18.9214C41.1927 19.2984 42.4178 19.9109 43.4544 20.9004C44.9151 22.314 45.5277 24.0102 45.1978 26.0363C45.1507 26.4133 45.0984 26.7902 45.046 27.1672C44.9413 27.9211 44.8366 28.675 44.7738 29.4289C44.5853 31.5964 45.1036 33.5282 46.847 34.9889ZM70.7833 4.6444V4.97423C70.6891 6.05797 70.4064 7.09458 70.0294 8.1312C69.1342 10.44 68.0505 12.6075 66.8254 14.7749C63.4799 20.6177 59.6633 26.0835 55.6582 31.5021C55.6207 31.549 55.5832 31.5996 55.5446 31.6518C55.3891 31.8616 55.2156 32.0957 54.9514 32.2089C54.6216 32.3974 54.0091 32.0676 54.0562 31.6906C54.1033 31.455 54.1975 31.1723 54.2918 30.8896C54.598 30.1594 54.9042 29.4174 55.2104 28.6754L55.2106 28.675L55.2107 28.6746C55.517 27.9326 55.8232 27.1906 56.1294 26.4604C58.2026 21.6072 60.4643 16.8482 63.0559 12.2305C64.281 10.0631 65.6474 7.8956 67.2494 5.96373C67.9562 5.16271 68.7101 4.36169 69.6996 3.84338C70.265 3.56067 70.7362 3.79626 70.7833 4.45593V4.6444ZM45.0094 52.3758C44.3026 52.6114 43.5487 52.7056 42.7948 52.7056C42.6147 52.6756 42.4346 52.6503 42.2561 52.6253C41.874 52.5718 41.4989 52.5192 41.1456 52.4229C40.7687 52.3286 40.6273 51.9517 40.8629 51.6219C42.2293 49.7842 42.5592 47.6639 42.6063 45.4493C42.6534 44.3184 42.7948 43.1876 43.3602 42.151C44.3968 40.2662 46.0931 39.5123 48.1192 39.2296C48.3077 39.1825 48.4961 39.1825 48.6375 39.2767C48.8327 39.3744 49.0294 39.4692 49.2257 39.5638L49.2258 39.5639C50.1667 40.0175 51.1009 40.4679 51.8416 41.2086C52.6897 42.1039 52.9253 43.2347 52.8311 44.4127C52.784 45.0252 52.6426 45.6378 52.3128 46.2032C50.6165 49.1717 48.3077 51.3863 45.0094 52.3758ZM52.5012 35.4601C52.5484 35.5072 52.6426 35.6015 52.6897 35.6957C52.6897 36.0346 52.5374 36.2592 52.3697 36.5065C52.3509 36.5343 52.3318 36.5624 52.3128 36.591C52.2185 36.7323 52.0772 36.8737 51.8887 36.7794C51.6531 36.6852 51.6531 36.4025 51.7473 36.214L51.7474 36.214L51.7474 36.2139L51.7474 36.2139L51.7474 36.2139L51.7475 36.2138C51.8888 35.9783 52.0301 35.7428 52.2185 35.5072C52.2657 35.4601 52.407 35.413 52.5012 35.4601ZM29.9785 67.9721C30.0256 71.4118 32.9469 74.2861 36.3866 74.2861C39.9676 74.2861 42.8419 71.4589 42.8419 67.8308C42.8419 64.2969 39.9205 61.3284 36.3395 61.4226C32.2402 61.5169 29.9313 64.8623 29.9785 67.9721ZM36.4808 65.0037C38.0358 65.0037 39.2609 66.2759 39.2609 67.8779C39.2137 69.4328 37.9415 70.7522 36.4337 70.7522C34.8317 70.7522 33.5124 69.3386 33.5595 67.7365C33.6066 66.2287 34.9259 64.9565 36.4808 65.0037ZM58.2497 65.7104C58.3911 68.5376 56.1765 72.1657 51.8416 72.1657C47.8836 72.1657 45.4334 68.8674 45.4334 65.8518C45.4334 62.2707 48.2606 59.3023 51.7945 59.3023C55.9409 59.2551 58.3911 62.7891 58.2497 65.7104ZM51.8887 62.8833C50.2867 62.8362 49.0145 64.0141 48.9202 65.6162C48.826 67.124 50.0982 68.4904 51.6531 68.5847C53.3023 68.6789 54.6687 67.4067 54.6687 65.7575C54.7158 64.1555 53.4907 62.8833 51.8887 62.8833ZM62.4904 60.1504C66.1186 60.1504 68.9457 57.3233 68.9457 53.6951C69.0871 50.7266 66.8254 47.2398 62.4904 47.2869C58.1555 47.2869 56.0351 50.9151 56.0823 53.7893C56.1765 57.229 59.0508 60.1033 62.4904 60.1504ZM62.5847 50.868C64.1867 50.868 65.4118 52.0931 65.4118 53.6951C65.4589 55.25 64.1867 56.5694 62.6318 56.6165C61.0769 56.6165 59.7104 55.3443 59.6633 53.8365C59.6162 52.2344 60.9826 50.868 62.5847 50.868ZM29.2717 59.8677C29.4601 62.8833 26.9157 66.2758 23.052 66.3701C19.3767 66.4643 16.4553 63.5901 16.4553 59.9148C16.4553 56.428 19.2354 53.5538 22.7693 53.5066C26.6801 53.4595 29.3659 56.7107 29.2717 59.8677ZM25.7378 60.009C25.7849 58.4541 24.5598 57.1348 22.9577 57.0877C21.3086 57.0405 19.9893 58.3128 19.9421 59.9619C19.9421 61.4697 21.2615 62.8362 22.8164 62.8362C24.3713 62.8362 25.6906 61.5168 25.7378 60.009ZM29.9313 21.7486C26.3974 21.7957 23.8059 24.717 23.9472 27.7798C23.853 31.2194 26.7273 33.9052 30.0256 33.9052C33.371 33.9052 36.0568 31.1723 36.0568 27.874C36.0568 24.4814 33.2768 21.7014 29.9313 21.7486ZM29.8842 25.3296C31.2978 25.2825 32.4286 26.3662 32.4757 27.7326C32.5229 29.0991 31.4391 30.2771 30.0256 30.2771C28.612 30.3242 27.5283 29.2876 27.4812 27.874C27.434 26.4604 28.4706 25.3767 29.8842 25.3296Z" fill="#A99C6D"/>
</svg>
