<svg width="22" height="20" viewBox="0 0 22 20" fill="none" xmlns="http://www.w3.org/2000/svg">
<path fill-rule="evenodd" clip-rule="evenodd" d="M0.83313 10.167C0.83313 10.7193 1.28085 11.167 1.83313 11.167L17.6172 11.167L11.5833 18.0054C11.2179 18.4195 11.2574 19.0514 11.6715 19.4168C12.0856 19.7822 12.7176 19.7427 13.083 19.3286L20.5799 10.8321C20.5821 10.8296 20.5843 10.8271 20.5866 10.8245L21.1667 10.167L20.587 9.50998C20.5845 9.50707 20.582 9.50419 20.5794 9.50131L13.083 1.00536C12.7176 0.591234 12.0856 0.551739 11.6715 0.917143C11.2574 1.28255 11.2179 1.91448 11.5833 2.3286L17.6171 9.16698L1.83313 9.16698C1.28085 9.16698 0.83313 9.61469 0.83313 10.167Z" fill="white"/>
</svg>
