<svg width="22" height="20" viewBox="0 0 22 20" fill="none" xmlns="http://www.w3.org/2000/svg">
<path fill-rule="evenodd" clip-rule="evenodd" d="M21.1667 9.83327C21.1667 9.28098 20.719 8.83327 20.1667 8.83327L4.38272 8.83327L10.4166 1.99488C10.782 1.58076 10.7425 0.948829 10.3284 0.583425C9.91425 0.218022 9.28232 0.257517 8.91691 0.671641L1.42001 9.16814C1.41776 9.17065 1.41553 9.17318 1.41331 9.17572L0.833129 9.83326L1.41284 10.4903C1.41537 10.4932 1.41792 10.4961 1.42048 10.4989L8.91691 18.9949C9.28232 19.409 9.91425 19.4485 10.3284 19.0831C10.7425 18.7177 10.782 18.0858 10.4166 17.6716L4.38273 10.8333L20.1667 10.8333C20.719 10.8333 21.1667 10.3856 21.1667 9.83327Z" fill="#212B36"/>
</svg>
