<svg width="24" height="24" viewBox="0 0 24 24" fill="none" xmlns="http://www.w3.org/2000/svg">
<path d="M19.071 4.92893C18.6805 4.53841 18.0473 4.53841 17.6568 4.92893L11.9999 10.5858L6.34309 4.92893C5.95257 4.53841 5.3194 4.53841 4.92888 4.92893C4.53836 5.31946 4.53836 5.95262 4.92888 6.34315L10.5857 12L4.92888 17.6569C4.53836 18.0474 4.53835 18.6805 4.92888 19.0711C5.3194 19.4616 5.95257 19.4616 6.34309 19.0711L11.9999 13.4142L17.6568 19.0711C18.0473 19.4616 18.6805 19.4616 19.071 19.0711C19.4615 18.6805 19.4615 18.0474 19.071 17.6569L13.4142 12L19.071 6.34315C19.4615 5.95262 19.4615 5.31946 19.071 4.92893Z" fill="#212B36"/>
</svg>
