<svg width="56" height="56" viewBox="0 0 56 56" fill="none" xmlns="http://www.w3.org/2000/svg">
<circle cx="28" cy="28" r="27" stroke="white" stroke-width="2"/>
<path fill-rule="evenodd" clip-rule="evenodd" d="M17.8331 28.167C17.8331 28.7193 18.2808 29.167 18.8331 29.167L34.6172 29.167L28.5833 36.0054C28.2179 36.4195 28.2574 37.0514 28.6715 37.4168C29.0856 37.7822 29.7176 37.7427 30.083 37.3286L37.5799 28.8321C37.5821 28.8296 37.5843 28.8271 37.5866 28.8245L38.1667 28.167L37.587 27.51C37.5845 27.5071 37.582 27.5042 37.5794 27.5013L30.083 19.0054C29.7176 18.5912 29.0856 18.5517 28.6715 18.9171C28.2574 19.2825 28.2179 19.9145 28.5833 20.3286L34.6171 27.167L18.8331 27.167C18.2808 27.167 17.8331 27.6147 17.8331 28.167Z" fill="white"/>
</svg>
