<?xml version="1.0" encoding="UTF-8"?> <svg xmlns="http://www.w3.org/2000/svg" width="80" height="80" viewBox="0 0 80 80" fill="none"><path fill-rule="evenodd" clip-rule="evenodd" d="M18.5053 39.8012C18.5053 48.6668 18.5053 57.5325 18.552 66.3982V67.0981C18.6454 68.4979 19.206 69.0579 20.5606 69.1512H58.7705C58.9124 69.1512 59.0543 69.1565 59.1943 69.1618C59.4693 69.1721 59.7375 69.1821 59.985 69.1512C61.1995 69.0579 61.8068 68.4513 61.9002 67.1914C61.9312 66.913 61.9211 66.6142 61.9108 66.3084C61.9055 66.1529 61.9002 65.9955 61.9002 65.8382V14.1374C61.9002 13.5774 61.9002 13.0175 61.8068 12.4576C61.6666 11.571 61.0594 11.0577 60.1719 10.9644C59.7515 10.9177 59.3778 10.9177 58.9574 10.9177H21.2146C20.7942 10.9177 20.3737 10.9177 20.0001 10.9644C19.1125 11.1044 18.5987 11.6643 18.5053 12.5509V39.8012Z" fill="#EEC200"></path><path fill-rule="evenodd" clip-rule="evenodd" d="M11.1249 6.43835C12.3394 5.08517 14.3013 4.29192 16.5434 4.29192C17.898 4.29192 19.2994 4.71187 20.5139 5.50512C21.1211 5.92507 21.7284 6.34503 22.3823 6.71832C25.9791 8.72476 29.5759 8.77142 33.126 6.76498C33.7305 6.41989 34.3173 6.03935 34.9083 5.65614C35.2762 5.41757 35.6457 5.17792 36.0221 4.94518C38.9182 3.17205 41.8143 3.12539 44.6637 5.08517C44.953 5.26906 45.2385 5.45295 45.5225 5.6358C46.2472 6.10245 46.9616 6.5625 47.6999 6.99828C49.7552 8.21148 52.0441 8.39813 54.3329 8.11816C55.6409 7.93151 56.8086 7.37158 57.883 6.57833C58.1001 6.41152 58.3172 6.23874 58.5364 6.06426C58.9304 5.75071 59.3313 5.43161 59.7515 5.13183C62.414 3.35869 65.17 3.21871 67.9727 4.71187C69.3273 5.4118 70.3082 6.53167 70.5418 8.11816C70.7754 9.518 70.355 10.7312 69.4207 11.7578C69.1872 12.0144 68.9419 12.2477 68.6967 12.481C68.4515 12.7143 68.2062 12.9476 67.9727 13.2043C65.5904 15.8173 65.1233 18.8036 66.3378 22.0699C66.7115 23.1431 67.3187 24.123 68.0194 25.0096C68.2557 25.3365 68.4992 25.6563 68.7414 25.9746C69.1214 26.4739 69.4989 26.9698 69.8411 27.4827C71.0556 29.2558 71.0556 30.3757 69.7944 32.1488C69.3273 32.8021 68.8135 33.4087 68.2997 34.0153C68.1856 34.1603 68.0715 34.303 67.9585 34.4444C67.5623 34.9401 67.1787 35.4201 66.8516 35.9284C65.2167 38.6814 65.2634 41.4344 66.9917 44.1408C67.2884 44.6223 67.6733 45.0744 68.0531 45.5205C68.1517 45.6363 68.2501 45.7518 68.3464 45.8673C68.5436 46.1234 68.7491 46.3629 68.9525 46.5998C69.2307 46.9239 69.5048 47.2433 69.7477 47.5937C71.1491 49.5069 71.1023 51.3733 69.6543 53.2398C69.3327 53.6681 68.9649 54.0811 68.5952 54.4964C68.3205 54.8049 68.0446 55.1147 67.7858 55.4329C66.5713 56.8794 65.7772 58.4659 65.6838 60.379C65.5904 62.5721 66.2444 64.4385 67.6924 66.025C68.0055 66.369 68.3396 66.6921 68.6665 67.0083C68.8274 67.1638 68.9864 67.3177 69.1405 67.4715C71.1958 69.5246 71.0556 72.2776 68.8135 74.1908C66.5713 76.1039 62.9278 76.3372 60.312 74.7507C60.1222 74.6243 59.9324 74.4944 59.7416 74.364L59.7406 74.3633C59.2276 74.0124 58.7078 73.6568 58.1633 73.3509C54.6132 71.2977 51.0631 71.2511 47.4664 73.2575C46.8441 73.6088 46.2375 74.0071 45.6285 74.4071C45.1861 74.6975 44.742 74.9891 44.29 75.264C43.2156 75.9172 42.0478 76.3372 40.7866 76.4305C39.1517 76.5705 37.6103 76.1039 36.2556 75.2173C35.9151 74.9905 35.5822 74.7637 35.2539 74.5401L35.2531 74.5395L35.2505 74.5377C34.7693 74.2099 34.298 73.8888 33.8266 73.5842C31.3042 71.951 28.5015 71.3911 25.512 71.9977C23.8771 72.3243 22.3823 73.0709 21.0744 74.0974C20.0935 74.844 18.9724 75.404 17.7112 75.6373C15.5625 75.9639 13.6006 75.5439 11.8723 74.2841C10.6111 73.3509 9.91039 72.1376 9.9571 70.5045C10.0038 69.2446 10.5643 68.3114 11.3584 67.4715C11.5219 67.3082 11.6971 67.1682 11.8723 67.0282C12.0474 66.8883 12.2226 66.7483 12.3861 66.5849C15.2822 63.9719 15.7493 59.8657 13.9743 56.786C13.5072 55.9461 12.9466 55.1529 12.3394 54.4063C12.1214 54.1419 11.8983 53.8775 11.6751 53.6131C11.2287 53.0843 10.7823 52.5554 10.3775 52.0266C9.20971 50.4867 9.20971 49.3669 10.3775 47.827C10.6889 47.3915 11.0418 46.9975 11.3948 46.6035C11.5712 46.4065 11.7477 46.2094 11.919 46.0072C12.0903 45.805 12.2667 45.608 12.4432 45.411C12.7961 45.017 13.149 44.623 13.4605 44.1875C15.6092 41.2944 15.5158 38.0281 13.2736 35.2285C12.9903 34.8825 12.6857 34.5577 12.3742 34.2256C12.2236 34.0651 12.0712 33.9025 11.919 33.7353C11.7601 33.5502 11.5976 33.3688 11.4355 33.188C11.0256 32.7309 10.6188 32.277 10.2841 31.7755C9.163 30.2357 9.25643 28.5092 10.3775 27.1094C10.8913 26.4561 11.4986 25.8495 12.1058 25.2429C12.8065 24.543 13.4605 23.7964 13.9276 22.9565C15.469 20.2501 15.3756 17.6371 13.6473 15.0707C13.346 14.6193 12.984 14.2285 12.6102 13.825C12.5204 13.7281 12.4299 13.6303 12.3394 13.5309C12.1525 13.3209 11.9423 13.1226 11.7321 12.9243C11.5219 12.726 11.3117 12.5277 11.1249 12.3177C9.44327 10.5912 9.63012 8.0715 11.1249 6.43835Z" fill="#EEC200"></path><path d="M39.7589 37.0481V37.888C39.7589 38.2613 39.8991 38.5413 40.2727 38.6813C40.3895 38.7279 40.4946 38.7629 40.5997 38.7979C40.7048 38.8329 40.8099 38.8679 40.9267 38.9146C41.5807 39.2879 41.9076 39.8945 41.8142 40.5944C41.7208 41.341 41.2537 41.9009 40.553 42.0409C39.4319 42.2742 38.3109 42.2742 37.1898 42.0409C36.4424 41.9009 36.022 41.341 35.9753 40.5477C35.9753 40.1744 36.0168 39.8011 36.0583 39.4278C36.0791 39.2412 36.0999 39.0545 36.1154 38.8679C36.1379 38.5757 36.1821 38.2834 36.2271 37.986C36.2755 37.666 36.3248 37.34 36.349 37.0015C36.3957 35.8816 36.2556 35.6483 35.1812 35.1817C35.0566 35.135 34.9321 35.0935 34.8075 35.052C34.5584 34.9691 34.3092 34.8861 34.0601 34.7617C33.1726 34.3418 32.7522 33.5018 33.0325 32.6619C33.3127 31.7754 34.2003 31.2621 35.1812 31.4954C36.0687 31.6821 36.9095 32.0553 37.7036 32.522C39.1517 33.4552 40.0392 34.6684 39.8523 36.4882V37.0015C39.8056 37.0481 39.7589 37.0481 39.7589 37.0481Z" fill="#FCF1CD"></path><path d="M43.12 35.8567C43.309 35.8323 43.5083 35.8067 43.7294 35.7883C43.819 35.7982 43.9128 35.8103 44.009 35.8226C44.3645 35.8683 44.7532 35.9183 45.084 35.8816C45.9715 35.8816 46.6722 35.3216 46.8123 34.5284C46.9992 33.7352 46.5788 32.9886 45.7847 32.6153C45.6445 32.522 45.5044 32.4753 45.3176 32.4286C44.1498 32.1953 42.982 32.242 41.8142 32.522C40.9267 32.7553 40.3662 33.5952 40.5063 34.4351C40.6464 35.3216 41.3471 35.9282 42.2813 35.9282C42.5642 35.9282 42.8299 35.894 43.12 35.8567Z" fill="#FCF1CD"></path><path fill-rule="evenodd" clip-rule="evenodd" d="M47.1861 29.6756C48.1203 31.682 48.5407 33.7818 48.5874 35.9749C48.494 38.9145 47.84 41.6676 46.065 44.094L45.7847 44.5139C42.7485 48.2002 38.3576 48.4335 35.1345 44.9805C34.1536 44.0006 33.4529 42.8341 32.9858 41.5276C31.2575 37.0014 31.5377 32.6152 33.9667 28.4157C34.6674 27.2025 35.6484 26.2693 36.8161 25.5227C39.105 24.1229 41.4406 24.1229 43.7294 25.5694C45.3176 26.5492 46.392 27.9958 47.1861 29.6756Z" fill="#FCF1CD"></path><path fill-rule="evenodd" clip-rule="evenodd" d="M40.0859 65.5582C34.9009 65.5582 29.6692 65.5582 24.3441 65.6049H23.5033C22.2421 65.6516 21.8217 65.4183 22.5691 63.9718C23.4566 62.2453 24.858 60.9854 26.4462 59.9589C27.3932 59.3138 28.4593 58.8273 29.4982 58.3532L29.7627 58.2324C31.8647 57.2525 33.9667 56.2726 36.0687 55.2461C36.1374 55.2118 36.2088 55.1775 36.2817 55.1425C36.5064 55.0347 36.7446 54.9204 36.9562 54.7795C37.6102 54.4062 37.8904 53.8462 37.9372 53.0996C37.9517 52.8818 37.921 52.6415 37.8901 52.3996C37.8217 51.8641 37.7524 51.3213 38.1707 50.9999C38.488 50.7406 38.9121 50.8371 39.3551 50.9379C39.6295 51.0003 39.9113 51.0644 40.1793 51.0465C41.1602 51.0465 42.0945 50.8132 43.0287 50.5799C43.4024 50.4399 43.6827 50.6266 43.8228 50.9999C43.8462 51.1165 43.8812 51.2215 43.9162 51.3265C43.9512 51.4315 43.9863 51.5365 44.0096 51.6531C44.5702 53.6129 45.7847 55.0128 47.513 56.086C48.6691 56.7843 49.8717 57.3589 51.0762 57.9345C51.9642 58.3588 52.8533 58.7837 53.7256 59.259C54.9868 59.9122 56.1546 60.7521 57.1823 61.732C58.0698 62.6186 58.3968 63.5985 58.2099 64.8117C58.1632 65.3249 57.9764 65.5116 57.4625 65.5582H40.0859Z" fill="#FFEA8A"></path><path fill-rule="evenodd" clip-rule="evenodd" d="M21.9619 56.5526V36.4415C21.9619 29.7222 21.9619 23.003 22.102 16.1904C22.102 15.2575 22.102 14.7909 22.3354 14.5575C22.5688 14.324 23.0359 14.324 23.9705 14.324H56.3882C57.424 14.324 57.9259 14.324 58.169 14.5748C58.3976 14.8107 58.3973 15.2682 58.3969 16.156L58.3968 55.526C58.3968 55.6639 58.411 55.8131 58.4253 55.9645C58.4693 56.4281 58.5154 56.913 58.1633 57.1592C57.6903 57.4629 57.315 57.1564 56.9492 56.8576C56.8092 56.7433 56.6706 56.6301 56.5284 56.5526C55.2486 55.951 53.9689 55.2888 52.7136 54.6393C52.411 54.4827 52.1099 54.3269 51.8105 54.1728C51.6808 54.1047 51.5502 54.0365 51.4189 53.968L51.418 53.9675C50.6513 53.5675 49.8656 53.1576 49.148 52.6797C47.9335 51.8864 47.4663 50.7199 47.4196 49.3201C47.3729 48.4335 47.6532 47.6869 48.2604 46.987C50.3157 44.6539 51.4835 41.9009 51.9039 38.8679C52.6046 33.7351 51.7171 29.0223 48.3539 24.9161C46.6255 22.8164 44.4301 21.4165 41.7208 21.0432C37.9372 20.4833 34.901 21.9298 32.4253 24.6828C30.3233 27.0159 29.1555 29.7689 28.6884 32.8019C28.0811 36.6748 28.5015 40.4077 30.2298 43.954C30.9772 45.5405 32.0049 47.0336 33.3595 48.1535C34.1069 48.7601 34.3871 49.4134 34.3871 50.3466L34.3872 50.4988C34.3886 52.0738 34.3886 52.0957 32.9391 52.8197C31.4443 53.5662 29.9496 54.2662 28.4548 54.9194C26.6331 55.7127 24.858 56.6459 23.2698 57.8591C23.0363 58.0457 22.8027 58.2324 22.5692 58.3257C22.3823 58.419 22.102 58.3724 22.0553 58.0924C21.9619 57.5791 21.9619 57.0659 21.9619 56.5526Z" fill="#EBF5FA"></path><path d="M39.759 37.0481V37.8881C39.759 38.2613 39.8991 38.5413 40.2728 38.6813C40.3896 38.728 40.4947 38.763 40.5998 38.798C40.7049 38.8329 40.81 38.8679 40.9267 38.9146C41.5807 39.2879 41.9077 39.8945 41.8143 40.5944C41.7208 41.341 41.2537 41.9009 40.5531 42.0409C39.432 42.2742 38.3109 42.2742 37.1898 42.0409C36.4425 41.9009 36.022 41.341 35.9753 40.5478C35.9753 40.1745 36.0169 39.8012 36.0584 39.4279C36.0791 39.2412 36.0999 39.0546 36.1155 38.8679C36.138 38.5757 36.1822 38.2835 36.2271 37.986C36.2755 37.666 36.3248 37.34 36.349 37.0015C36.3957 35.8816 36.2556 35.6483 35.1812 35.1817C35.0567 35.135 34.9321 35.0935 34.8076 35.0521C34.5584 34.9691 34.3093 34.8862 34.0602 34.7617C33.1727 34.3418 32.7522 33.5019 33.0325 32.662C33.3128 31.7754 34.2003 31.2621 35.1812 31.4954C36.0688 31.6821 36.9096 32.0554 37.7037 32.522C39.1517 33.4552 40.0392 34.6684 39.8524 36.4882V37.0015C39.8057 37.0481 39.759 37.0481 39.759 37.0481Z" fill="#454F5B"></path><path d="M43.12 35.8567C43.309 35.8324 43.5083 35.8067 43.7294 35.7883C43.819 35.7982 43.9128 35.8103 44.0091 35.8227C44.3646 35.8684 44.7532 35.9183 45.084 35.8816C45.9716 35.8816 46.6722 35.3217 46.8124 34.5284C46.9992 33.7352 46.5788 32.9886 45.7847 32.6153C45.6446 32.522 45.5045 32.4753 45.3176 32.4287C44.1498 32.1954 42.982 32.242 41.8143 32.522C40.9267 32.7553 40.3662 33.5952 40.5063 34.4351C40.6465 35.3217 41.3471 35.9283 42.2814 35.9283C42.5642 35.9283 42.83 35.8941 43.12 35.8567Z" fill="#454F5B"></path><path fill-rule="evenodd" clip-rule="evenodd" d="M18.5053 39.8011C18.5053 48.6668 18.5053 57.5325 18.552 66.3981V67.0981C18.6454 68.4979 19.206 69.0578 20.5606 69.1512H58.7705C58.9124 69.1512 59.0543 69.1565 59.1944 69.1617C59.4693 69.172 59.7375 69.1821 59.985 69.1512C61.1995 69.0578 61.8068 68.4512 61.9002 67.1914C61.9312 66.913 61.9211 66.6141 61.9108 66.3083C61.9055 66.1529 61.9002 65.9955 61.9002 65.8382V14.1373C61.9002 13.5774 61.9002 13.0175 61.8068 12.4575C61.6666 11.571 61.0594 11.0577 60.1719 10.9644C59.7515 10.9177 59.3778 10.9177 58.9574 10.9177H21.2146C20.7942 10.9177 20.3738 10.9177 20.0001 10.9644C19.1126 11.1043 18.5987 11.6643 18.5053 12.5508V39.8011ZM21.962 56.5526V36.4415C21.962 29.7223 21.962 23.003 22.1021 16.1904C22.1021 15.2575 22.1021 14.7909 22.3354 14.5575C22.5689 14.324 23.036 14.324 23.9705 14.324H56.3883C57.4241 14.324 57.926 14.324 58.1691 14.5748C58.3976 14.8107 58.3974 15.2682 58.3969 16.156L58.3969 55.526C58.3969 55.6639 58.411 55.8131 58.4254 55.9645C58.4694 56.4281 58.5154 56.913 58.1633 57.1592C57.6903 57.4629 57.3151 57.1564 56.9492 56.8576C56.8092 56.7433 56.6706 56.6301 56.5284 56.5526C55.2487 55.951 53.9689 55.2888 52.7136 54.6393C52.4111 54.4827 52.1099 54.3269 51.8105 54.1728C51.6809 54.1047 51.5502 54.0365 51.419 53.968L51.418 53.9675C50.6514 53.5675 49.8656 53.1576 49.148 52.6797C47.9335 51.8864 47.4664 50.7199 47.4197 49.3201C47.373 48.4335 47.6532 47.6869 48.2605 46.987C50.3158 44.6539 51.4836 41.9009 51.904 38.8679C52.6046 33.7351 51.7171 29.0223 48.3539 24.9161C46.6256 22.8164 44.4301 21.4165 41.7209 21.0432C37.9373 20.4833 34.901 21.9298 32.4253 24.6828C30.3233 27.0159 29.1555 29.7689 28.6884 32.8019C28.0811 36.6748 28.5015 40.4077 30.2299 43.954C30.9773 45.5405 32.0049 47.0336 33.3595 48.1535C34.1069 48.7601 34.3872 49.4134 34.3872 50.3466L34.3873 50.4988C34.3886 52.0738 34.3886 52.0957 32.9391 52.8197C31.4444 53.5662 29.9496 54.2662 28.4548 54.9194C26.6331 55.7127 24.8581 56.6459 23.2699 57.8591C23.0363 58.0457 22.8028 58.2324 22.5692 58.3257C22.3824 58.419 22.1021 58.3724 22.0554 58.0924C21.962 57.5791 21.962 57.0659 21.962 56.5526ZM40.086 65.5582C34.901 65.5582 29.6693 65.5582 24.3442 65.6049H23.5034C22.2422 65.6516 21.8218 65.4183 22.5692 63.9717C23.4567 62.2453 24.8581 60.9854 26.4462 59.9589C27.3933 59.3138 28.4594 58.8273 29.4983 58.3532L29.7628 58.2324C31.8648 57.2525 33.9668 56.2726 36.0688 55.2461C36.1375 55.2118 36.2089 55.1775 36.2818 55.1425C36.5065 55.0347 36.7447 54.9204 36.9563 54.7794C37.6103 54.4062 37.8905 53.8462 37.9373 53.0996C37.9518 52.8818 37.9211 52.6414 37.8902 52.3996C37.8218 51.8641 37.7525 51.3213 38.1708 50.9999C38.4881 50.7406 38.9122 50.8371 39.3552 50.9378C39.6296 51.0003 39.9114 51.0644 40.1794 51.0465C41.1603 51.0465 42.0946 50.8132 43.0288 50.5799C43.4025 50.4399 43.6828 50.6266 43.8229 50.9999C43.8462 51.1165 43.8813 51.2215 43.9163 51.3265C43.9513 51.4315 43.9864 51.5365 44.0097 51.6531C44.5703 53.6129 45.7848 55.0128 47.5131 56.086C48.6692 56.7843 49.8718 57.3589 51.0763 57.9345C51.9643 58.3588 52.8534 58.7837 53.7257 59.2589C54.9869 59.9122 56.1547 60.7521 57.1824 61.732C58.0699 62.6186 58.3969 63.5985 58.21 64.8117C58.1633 65.3249 57.9765 65.5116 57.4626 65.5582H40.086ZM47.1861 29.6756C48.1203 31.682 48.5407 33.7818 48.5875 35.9749C48.494 38.9146 47.8401 41.6676 46.065 44.094L45.7848 44.5139C42.7485 48.2002 38.3577 48.4335 35.1346 44.9805C34.1536 44.0007 33.453 42.8341 32.9858 41.5276C31.2575 37.0014 31.5378 32.6153 33.9668 28.4157C34.6675 27.2025 35.6484 26.2693 36.8162 25.5227C39.105 24.1229 41.4406 24.1229 43.7295 25.5694C45.3177 26.5493 46.392 27.9958 47.1861 29.6756Z" fill="#454F5B"></path><path fill-rule="evenodd" clip-rule="evenodd" d="M58.1633 77.5037C59.985 78.7169 61.9936 79.2302 64.1424 79.2768C65.4036 79.2768 66.6181 79.0435 67.8326 78.6702C69.4675 78.1569 70.8221 77.2704 71.9899 76.0572C74.9794 72.8842 75.0261 68.3114 71.9899 65.1384C71.7563 64.8818 71.5111 64.6485 71.2658 64.4151C71.0206 64.1818 70.7754 63.9485 70.5418 63.6919C69.0471 62.0121 68.9069 60.099 70.1681 58.2325C70.5418 57.6726 71.0089 57.1593 71.476 56.646C72.13 55.9461 72.7373 55.1995 73.2511 54.3596C74.6057 52.0265 74.7458 49.6468 73.7182 47.1737C73.2511 46.1005 72.5971 45.214 71.8497 44.3274L70.7287 43.0675C68.9069 40.9211 68.8602 38.9147 70.7754 36.6749C71.2425 36.1616 71.7096 35.6484 72.13 35.1351C72.784 34.3885 73.2978 33.5953 73.7182 32.7087C74.7458 30.5156 74.6991 28.3225 73.3912 26.2228C73.1109 25.7561 72.7891 25.331 72.4673 24.9059C72.3064 24.6933 72.1456 24.4807 71.9899 24.263C71.8274 24.0434 71.663 23.8278 71.4994 23.6132C70.8635 22.7791 70.2403 21.9616 69.7944 20.9967C68.9069 19.0369 69.2339 17.0305 70.7287 15.4906C70.9622 15.234 71.2075 15.0007 71.4527 14.7674C71.6979 14.5341 71.9432 14.3008 72.1767 14.0441C74.559 11.3844 74.9327 7.69817 73.0642 4.71184C72.2701 3.45198 71.1958 2.37877 69.8878 1.67885C65.6838 -0.607562 61.6199 -0.374255 57.6495 2.28545C56.9955 2.70538 56.435 3.17198 55.8745 3.63857C54.7067 4.5718 53.3053 4.85183 51.8573 4.66518C50.596 4.5252 49.475 4.01192 48.4006 3.312C47.7467 2.84541 47.0927 2.37875 46.4854 2.00548C45.2709 1.21223 43.963 0.605635 42.5617 0.325666C39.8057 -0.234271 37.2366 0.185682 34.8076 1.58553C33.7799 2.19212 32.7523 2.84538 31.7713 3.49864C29.2956 5.08513 26.7732 5.13179 24.2041 3.63863C23.8163 3.43003 23.4666 3.2024 23.1063 2.96789C22.9024 2.8352 22.6952 2.70031 22.4758 2.56542C18.5053 0.185682 14.5348 0.13902 10.5176 2.42543C9.34986 3.07869 8.41564 4.01192 7.71496 5.13179C5.65966 8.30477 6.03335 12.1777 8.74262 14.9774C8.8966 15.1312 9.05566 15.285 9.21645 15.4405C9.54338 15.7566 9.87758 16.0798 10.1907 16.4239C11.8723 18.1503 11.919 20.0168 10.3308 21.8832C10.0163 22.2603 9.68058 22.6161 9.33797 22.9793C9.17174 23.1555 9.00389 23.3335 8.83604 23.5164C8.41564 23.9364 8.04194 24.3563 7.66825 24.7763C5.51953 27.3893 5.33268 30.7956 7.20114 33.6419C7.6278 34.2976 8.12364 34.8612 8.62385 35.4297C8.83557 35.6703 9.04807 35.9119 9.25644 36.1616C9.72355 36.6283 10.144 37.0482 10.5176 37.5615C11.7321 39.1946 11.7321 40.5945 10.4709 42.2276C10.0524 42.7502 9.58185 43.2468 9.11751 43.7367C8.95992 43.903 8.80306 44.0686 8.64919 44.2341C7.76168 45.214 6.96758 46.2405 6.45376 47.4537C5.61295 49.4602 5.65966 51.4199 6.92087 53.2864C7.28828 53.8369 7.7159 54.3674 8.13796 54.891C8.35979 55.1662 8.58012 55.4395 8.78933 55.7128C8.99853 55.9861 9.21883 56.2594 9.44066 56.5346C9.86272 57.0581 10.2904 57.5887 10.6578 58.1392C11.7789 59.9123 11.7321 62.2921 9.9104 63.8785C9.44329 64.2985 8.97617 64.7185 8.55577 65.1851C5.51953 68.4514 5.61295 73.1175 8.74262 76.2438C10.7512 78.2503 13.2269 79.1835 15.9829 79.2768C18.6454 79.3701 21.0277 78.5769 23.1297 76.9437C25.9324 74.7507 29.5292 74.7973 32.3319 76.8038C33.0793 77.3637 33.8266 77.877 34.6207 78.3436C37.7037 80.2101 40.9268 80.49 44.29 79.2302C45.2963 78.8435 46.2064 78.2647 47.1265 77.6795C47.3169 77.5584 47.5077 77.437 47.6999 77.317C48.4006 76.8504 49.148 76.3838 49.8954 76.0105C51.7638 75.124 53.6323 75.0773 55.5007 75.9639C56.435 76.3838 57.3225 76.9437 58.1633 77.5037ZM11.1249 6.43831C12.3394 5.08513 14.3013 4.29189 16.5434 4.29189C17.8981 4.29189 19.2994 4.71184 20.5139 5.50509C21.1211 5.92504 21.7284 6.345 22.3823 6.71828C25.9791 8.72473 29.5759 8.77139 33.126 6.76494C33.7305 6.41985 34.3173 6.03932 34.9083 5.6561C35.2762 5.41753 35.6457 5.17789 36.0221 4.94515C38.9182 3.17201 41.8143 3.12535 44.6637 5.08513C44.953 5.26903 45.2386 5.45292 45.5225 5.63577C46.2472 6.10242 46.9617 6.56247 47.6999 6.99825C49.7552 8.21145 52.0441 8.3981 54.333 8.11813C55.6409 7.93148 56.8087 7.37154 57.883 6.5783C58.1001 6.41148 58.3172 6.23871 58.5364 6.06423C58.9304 5.75068 59.3313 5.43157 59.7515 5.13179C62.414 3.35866 65.17 3.21868 67.9727 4.71184C69.3273 5.41176 70.3083 6.53164 70.5418 8.11813C70.7754 9.51797 70.355 10.7312 69.4207 11.7577C69.1872 12.0144 68.942 12.2477 68.6967 12.481C68.4515 12.7143 68.2062 12.9476 67.9727 13.2042C65.5904 15.8173 65.1233 18.8036 66.3378 22.0699C66.7115 23.1431 67.3187 24.123 68.0194 25.0096C68.2557 25.3365 68.4992 25.6563 68.7414 25.9746C69.1214 26.4739 69.4989 26.9698 69.8411 27.4826C71.0556 29.2558 71.0556 30.3756 69.7944 32.1488C69.3273 32.802 68.8135 33.4086 68.2997 34.0152C68.1856 34.1602 68.0715 34.303 67.9585 34.4444C67.5623 34.9401 67.1787 35.4201 66.8516 35.9283C65.2167 38.6814 65.2634 41.4344 66.9917 44.1408C67.2884 44.6223 67.6733 45.0744 68.0531 45.5204C68.1517 45.6363 68.2501 45.7518 68.3464 45.8672C68.5436 46.1233 68.7492 46.3628 68.9525 46.5997C69.2307 46.9239 69.5048 47.2432 69.7477 47.5937C71.1491 49.5068 71.1024 51.3733 69.6543 53.2397C69.3327 53.6681 68.9649 54.0811 68.5952 54.4964C68.3205 54.8048 68.0446 55.1146 67.7858 55.4328C66.5713 56.8793 65.7773 58.4658 65.6838 60.3789C65.5904 62.572 66.2444 64.4385 67.6924 66.025C68.0055 66.369 68.3396 66.6921 68.6665 67.0082C68.8274 67.1638 68.9865 67.3176 69.1405 67.4715C71.1958 69.5246 71.0556 72.2776 68.8135 74.1907C66.5714 76.1038 62.9279 76.3372 60.312 74.7507C60.1222 74.6243 59.9324 74.4944 59.7416 74.3639L59.7406 74.3633C59.2276 74.0123 58.7078 73.6568 58.1633 73.3508C54.6132 71.2977 51.0632 71.2511 47.4664 73.2575C46.8441 73.6088 46.2376 74.0071 45.6285 74.407C45.1861 74.6975 44.742 74.9891 44.29 75.2639C43.2156 75.9172 42.0479 76.3372 40.7866 76.4305C39.1517 76.5705 37.6103 76.1038 36.2556 75.2173C35.9151 74.9905 35.5822 74.7637 35.2539 74.54L35.2531 74.5395L35.2505 74.5377C34.7694 74.2099 34.298 73.8888 33.8266 73.5841C31.3042 71.951 28.5015 71.391 25.512 71.9976C23.8771 72.3243 22.3823 73.0708 21.0744 74.0974C20.0935 74.844 18.9724 75.4039 17.7112 75.6372C15.5625 75.9639 13.6006 75.5439 11.8723 74.284C10.6111 73.3508 9.9104 72.1376 9.95711 70.5045C10.0038 69.2446 10.5644 68.3114 11.3585 67.4715C11.5219 67.3082 11.6971 67.1682 11.8723 67.0282C12.0474 66.8882 12.2226 66.7482 12.3861 66.5849C15.2822 63.9719 15.7493 59.8657 13.9743 56.786C13.5072 55.9461 12.9466 55.1529 12.3394 54.4063C12.1214 54.1419 11.8983 53.8775 11.6751 53.6131C11.2288 53.0843 10.7823 52.5554 10.3775 52.0265C9.20973 50.4867 9.20973 49.3668 10.3775 47.827C10.6889 47.3915 11.0418 46.9975 11.3948 46.6035C11.5712 46.4064 11.7477 46.2094 11.919 46.0072C12.0903 45.805 12.2667 45.608 12.4432 45.411C12.7961 45.017 13.1491 44.6229 13.4605 44.1874C15.6092 41.2944 15.5158 38.0281 13.2736 35.2284C12.9903 34.8825 12.6857 34.5577 12.3742 34.2256C12.2236 34.065 12.0712 33.9025 11.919 33.7353C11.7602 33.5501 11.5976 33.3688 11.4355 33.188C11.0257 32.7308 10.6188 32.277 10.2841 31.7755C9.16302 30.2356 9.25644 28.5092 10.3775 27.1093C10.8913 26.4561 11.4986 25.8495 12.1058 25.2429C12.8065 24.543 13.4605 23.7964 13.9276 22.9565C15.4691 20.2501 15.3756 17.6371 13.6473 15.0707C13.346 14.6192 12.984 14.2285 12.6102 13.825C12.5204 13.728 12.4299 13.6303 12.3394 13.5309C12.1525 13.3209 11.9423 13.1226 11.7321 12.9243C11.5219 12.7259 11.3117 12.5276 11.1249 12.3177C9.44329 10.5912 9.63013 8.07146 11.1249 6.43831Z" fill="#454F5B"></path></svg> 