<?xml version="1.0" encoding="UTF-8"?> <svg xmlns="http://www.w3.org/2000/svg" width="80" height="80" viewBox="0 0 80 80" fill="none"><path d="M45.2211 65.7323C45.3492 65.6458 45.52 65.6026 45.6481 65.5162C45.9043 65.2569 46.1605 64.9975 46.4168 64.7382C54.5733 56.4832 62.7297 48.2282 70.9289 39.93C71.1852 39.6707 71.4414 39.4114 71.6976 39.1521C71.9965 38.8063 71.9965 38.547 71.6549 38.2012C70.8435 37.3368 69.9894 36.4724 69.1354 35.608C68.0251 34.4843 68.1105 34.4843 66.9575 35.6513C58.7156 43.9495 50.4737 52.2909 42.2318 60.6323C41.9755 60.8917 41.7193 61.151 41.5058 61.4535C41.335 61.6696 41.335 61.9722 41.5058 62.1882C42.6161 63.312 43.6837 64.4357 44.794 65.5594C44.8794 65.6026 45.0502 65.6458 45.2211 65.7323Z" fill="#EEC200"></path><path d="M74.4734 36.1267C74.6015 36.0402 74.7723 35.997 74.9004 35.9106C75.3702 35.4351 75.8826 34.9597 76.3523 34.4843C76.7794 34.0089 76.7794 33.7063 76.3523 33.2741C75.7972 32.6691 75.1993 32.064 74.6015 31.5021C72.6798 29.6005 73.1068 29.514 71.057 31.5886C70.9289 31.7182 70.8435 31.8047 70.7581 31.9343C70.5873 32.1936 70.5873 32.453 70.8008 32.6691C71.9111 33.7928 73.0214 34.9165 74.1317 35.997C74.1317 36.0402 74.3025 36.0402 74.4734 36.1267Z" fill="#F49342"></path><path d="M42.1464 67.7204C42.1464 67.6771 42.1464 67.5907 42.1037 67.5907C41.2923 66.6399 40.4382 65.7323 39.4987 64.9543C39.3706 64.8679 39.1998 64.8679 39.0717 65.0407C38.9009 65.2568 38.7728 65.4729 38.6447 65.689C38.3457 66.1645 38.3884 66.5534 38.7728 66.9424C39.2852 67.461 39.7977 67.9797 40.3101 68.4983C40.7372 68.8873 41.9329 68.4983 42.1037 67.8933C42.1464 67.8068 42.1464 67.7636 42.1464 67.7204Z" fill="#FCF1CD"></path><path d="M36.7656 69.7085C36.7229 69.7085 36.6375 69.7085 36.6375 69.7517C36.2959 69.9678 35.9115 70.789 35.9969 71.0915C35.9969 71.1347 36.0823 71.178 36.125 71.178C36.6375 71.2212 36.9791 70.9186 37.3208 70.6161C37.4489 70.5297 37.4916 70.3568 37.4062 70.1839C37.1926 69.9246 37.0645 69.7085 36.7656 69.7085Z" fill="#637381"></path><path d="M8.83713 26.2293C10.6307 26.2293 12.2962 26.5751 13.9616 27.0073C17.1644 27.8284 20.2391 28.9522 23.2711 30.2055C26.0469 31.3725 28.8227 32.6259 31.5984 33.7928C32.3244 34.0953 33.0504 34.3979 33.7763 34.7004C33.9472 34.7868 34.2034 34.8301 34.3742 34.6572C34.545 34.3979 34.3315 34.1818 34.1607 34.0089C32.6233 32.7555 31.086 31.5021 29.5059 30.292C21.6911 24.198 13.7481 18.3201 5.67703 12.615C5.54891 12.5286 5.4208 12.4422 5.29269 12.3557C4.05427 11.4481 4.05427 11.4481 4.95106 10.1515C5.12187 9.8922 5.29269 9.63288 5.50621 9.37356C5.84784 8.94136 6.06136 8.89814 6.57381 9.2439C8.45279 10.5405 10.3318 11.8803 12.2108 13.2201C18.2747 17.5853 24.296 22.037 30.1892 26.6183C34.3742 29.8598 38.4738 33.1877 42.4026 36.6885C43.0004 37.2072 43.5556 37.769 44.1534 38.2877C44.4097 38.547 44.7086 38.8063 45.0075 38.936C46.2886 39.4114 47.5698 39.8004 48.9363 39.93C49.1498 39.9732 49.3633 39.8868 49.406 39.6707C49.4488 39.541 49.4061 39.3249 49.3633 39.2385C48.9363 38.6334 48.4666 38.0716 47.9968 37.5097C45.9897 35.3487 43.8545 33.3606 41.5912 31.5021C31.1714 22.6421 20.1537 14.6032 9.05065 6.69392C7.08626 5.31089 7.38519 5.61343 8.58091 3.71175C8.70902 3.53887 8.83713 3.36599 8.96524 3.19311C9.17876 2.97701 9.43499 2.93379 9.64851 3.10667C9.94744 3.27955 10.2464 3.49565 10.5453 3.71175C17.1217 8.3795 23.6128 13.0905 30.0184 18.0175C34.0753 21.1294 38.1322 24.2844 42.0609 27.5691C44.8367 29.903 47.5271 32.2801 50.0466 34.8733C50.9861 35.8673 51.8402 36.9046 52.6089 38.0716C52.9932 38.6334 53.2921 39.2817 53.4629 39.93C53.8473 41.4859 53.1213 42.7825 51.584 43.2579C50.9861 43.4308 50.3455 43.3876 49.7477 43.474C49.4488 43.5173 49.2779 43.7334 49.406 43.9927C49.8758 44.9435 50.2601 45.8944 50.3882 46.9749C50.431 47.191 50.7299 47.2342 50.9007 47.1045C51.285 46.802 51.6267 46.4994 51.9256 46.1537C55.5127 42.5232 59.0572 38.936 62.6443 35.3055C64.993 32.9284 67.3845 30.5513 69.7332 28.1742C70.2884 27.6123 70.8435 27.0937 71.6122 26.8344C73.0214 26.359 74.3026 26.4886 75.3702 27.5259C76.6086 28.7361 77.847 29.9462 79 31.1996C80.2811 32.5826 80.3238 34.5707 79.1708 36.1267C78.9146 36.4724 78.6157 36.7317 78.3167 37.0343C67.8542 47.6231 57.3917 58.212 46.9719 68.8009C46.2887 69.4924 45.5627 70.011 44.7086 70.4432C41.4631 72.1288 38.2603 73.8576 35.0148 75.5432C34.7585 75.6729 34.4596 75.8457 34.2034 75.9754C33.2639 76.3644 32.3671 76.2779 31.5984 75.5432C30.6589 74.6356 29.6767 73.7712 28.7373 72.8203C23.6128 67.7636 18.6591 62.6204 13.9189 57.218C10.588 53.4578 7.38519 49.568 4.60942 45.3325C3.66993 43.863 2.77314 42.3935 2.04717 40.7944C1.57743 39.8004 1.19309 38.7631 1.06498 37.6394C0.808755 35.8673 1.15039 34.2682 2.73044 33.1877C3.15748 32.8852 3.3283 32.4962 3.24289 31.9776C3.15748 31.5021 3.11478 31.0267 3.15748 30.5513C3.20019 28.5632 4.18238 27.1801 6.01866 26.4886C6.91544 26.2293 7.89764 26.1861 8.83713 26.2293ZM4.22509 37.0343C4.26779 37.2072 4.26779 37.5097 4.3532 37.7258C4.52401 38.3309 4.73753 38.936 4.99376 39.4978C5.76243 41.2266 6.78733 42.8257 7.85494 44.3817C10.8869 48.7469 14.3033 52.7663 17.8477 56.7425C22.0327 61.4535 26.4312 65.9052 30.9152 70.3568C31.1287 70.5729 31.3422 70.789 31.5984 70.9619C31.8547 71.1348 32.1109 71.0915 32.2817 70.8322C32.3671 70.7026 32.4525 70.5729 32.5379 70.4432C33.9472 67.7204 35.3564 65.0408 36.7229 62.3179C37.1927 61.4103 37.7051 60.5891 38.4311 59.8976C41.335 56.9586 44.2388 54.0197 47.1427 51.0807C47.4844 50.735 47.7833 50.3892 48.1249 50.0867C48.253 49.957 48.4239 49.7841 48.3384 49.5248C48.253 49.2655 48.0395 49.3087 47.826 49.3087C46.0751 49.4816 44.4097 49.1358 42.7442 48.7036C40.7371 48.1418 38.7727 47.4935 36.8083 46.7588C31.6838 44.9003 26.6875 42.6961 21.7338 40.4919C18.3601 38.9792 14.9011 37.5961 11.3567 36.6021C10.7161 36.4292 10.0328 36.2563 9.39228 36.0834C9.09335 35.997 8.75172 35.8673 8.5382 36.1699C8.36738 36.386 8.62361 36.6453 8.75172 36.8614C9.17876 37.5097 9.5631 38.2012 10.0328 38.8495C12.2962 42.2639 14.8584 45.4622 17.4634 48.574C21.7338 53.6307 26.2177 58.4281 30.8725 63.1391C32.0682 64.306 32.0255 64.3492 30.9152 65.473C29.7622 66.6399 29.7622 66.6399 28.6091 65.473C22.6733 59.5086 16.9509 53.285 11.6983 46.6723C9.26417 43.6469 6.95815 40.4919 5.07917 36.9911C4.99376 36.8614 4.95106 36.6885 4.82294 36.6021C4.73753 36.4724 4.60942 36.386 4.43861 36.4724C4.3532 36.5156 4.31049 36.6021 4.26779 36.6885C4.22509 36.775 4.22509 36.8614 4.22509 37.0343ZM45.221 65.7323C45.3492 65.6458 45.52 65.6026 45.6481 65.5162C45.9043 65.2569 46.1605 64.9975 46.4168 64.7382C54.5732 56.4832 62.7297 48.2282 70.9289 39.93C71.1852 39.6707 71.4414 39.4114 71.6976 39.1521C71.9965 38.8063 71.9965 38.547 71.6549 38.2012C70.8435 37.3368 69.9894 36.4724 69.1354 35.608C68.025 34.4843 68.1105 34.4843 66.9574 35.6512C58.7155 43.9495 50.4736 52.2909 42.2318 60.6323C41.9755 60.8917 41.7193 61.151 41.5058 61.4535C41.335 61.6696 41.335 61.9721 41.5058 62.1882C42.6161 63.312 43.6837 64.4357 44.794 65.5594C44.8794 65.6026 45.0502 65.6458 45.221 65.7323ZM6.31759 30.9835C6.4884 32.1937 6.57381 32.453 7.64141 32.5394C8.87983 32.6259 10.1183 32.9284 11.314 33.2742C14.4314 34.0953 17.4634 35.219 20.4527 36.4724C25.1074 38.4173 29.6767 40.5783 34.3742 42.4368C37.4916 43.6469 40.5663 44.9003 43.8118 45.6783C44.2816 45.8079 44.7086 45.8944 45.1783 45.9808C45.5627 46.0672 46.0751 46.3266 46.2886 45.8944C46.5022 45.4622 46.0324 45.1596 45.7762 44.8571C45.1356 44.0791 44.4524 43.3876 43.7691 42.6529C43.2994 42.1342 42.7442 41.7885 42.0609 41.5724C36.3386 39.5843 30.8298 37.1639 25.2782 34.7004C21.99 33.2309 18.6591 31.9343 15.2427 30.8106C13.4492 30.2488 11.6556 29.7733 9.77662 29.5572C8.96524 29.4708 8.11116 29.4276 7.29978 29.6437C6.61652 29.8166 6.31759 30.2488 6.31759 30.9835ZM74.4734 36.1267C74.6015 36.0402 74.7723 35.997 74.9004 35.9106C75.3701 35.4351 75.8826 34.9597 76.3523 34.4843C76.7794 34.0089 76.7794 33.7064 76.3523 33.2742C75.7972 32.6691 75.1993 32.064 74.6015 31.5021C72.6798 29.6005 73.1068 29.514 71.057 31.5886C70.9289 31.7182 70.8435 31.8047 70.7581 31.9343C70.5873 32.1937 70.5873 32.453 70.8008 32.6691C71.9111 33.7928 73.0214 34.9165 74.1317 35.997C74.1317 36.0402 74.3026 36.0402 74.4734 36.1267ZM42.1463 67.7204C42.1463 67.6772 42.1464 67.5907 42.1036 67.5907C41.2923 66.6399 40.4382 65.7323 39.4987 64.9543C39.3706 64.8679 39.1998 64.8679 39.0717 65.0408C38.9008 65.2569 38.7727 65.473 38.6446 65.6891C38.3457 66.1645 38.3884 66.5535 38.7727 66.9424C39.2852 67.4611 39.7976 67.9797 40.3101 68.4984C40.7371 68.8873 41.9328 68.4984 42.1036 67.8933C42.1464 67.8068 42.1463 67.7636 42.1463 67.7204ZM36.7656 69.7085C36.7229 69.7085 36.6375 69.7085 36.6375 69.7517C36.2959 69.9678 35.9115 70.789 35.997 71.0915C35.997 71.1348 36.0824 71.178 36.1251 71.178C36.6375 71.2212 36.9791 70.9187 37.3208 70.6161C37.4489 70.5297 37.4916 70.3568 37.4062 70.1839C37.1927 69.9246 37.0646 69.7085 36.7656 69.7085ZM34.8866 34.8733C34.8439 34.8301 34.8012 34.7868 34.8012 34.7436C34.7585 34.7868 34.7158 34.8301 34.6731 34.8301C34.7158 34.8733 34.7585 34.9165 34.8439 34.9165C34.8439 34.9165 34.8439 34.8733 34.8866 34.8733Z" fill="#454F5B"></path></svg> 