<svg width="80" height="80" viewBox="0 0 80 80" fill="none" xmlns="http://www.w3.org/2000/svg">
<path d="M67.4401 21.0922C67.4401 18.2378 67.4401 15.3834 67.4401 12.529C67.4401 12.0611 67.4401 11.5931 67.3933 11.172C67.3465 10.8444 67.1593 10.6105 66.8318 10.6105C66.3638 10.5637 65.9427 10.5637 65.4748 10.5637C60.6082 10.5637 55.7885 10.5637 50.9219 10.5637C50.5944 10.5637 50.22 10.5637 49.8925 10.5637C49.3777 10.5637 49.0502 10.7508 48.863 11.2656C48.4418 12.529 47.4124 12.9033 46.149 12.9033C42.1247 12.9033 38.0536 12.8566 34.0294 12.9033C32.6724 12.9033 31.6897 12.529 31.2218 11.172C31.0814 10.704 30.707 10.6105 30.2859 10.5637C30.0051 10.5637 29.7244 10.5637 29.4436 10.5637C24.4367 10.5637 19.4298 10.5637 14.376 10.5637C14.0485 10.5637 13.6741 10.5637 13.3466 10.6105C12.9722 10.6572 12.7383 10.8912 12.7383 11.2656C12.7383 11.5931 12.6915 11.9675 12.6915 12.295C12.6915 14.4475 12.6915 16.6468 12.6915 18.7994C12.6915 19.4545 12.5511 20.1564 12.8318 20.8115C13.6741 20.9519 14.1421 20.2032 14.7972 20.016C15.0312 19.9692 15.2183 19.8288 15.4055 19.7352C18.8214 18.2378 22.1438 18.3782 25.4194 20.25C26.2616 20.7179 27.0571 21.2794 27.8994 21.7941C29.6308 22.8704 31.5025 23.7595 33.5147 24.321C34.4505 24.555 35.3864 24.6018 36.3691 24.3678C37.3517 24.1338 38.3812 23.9467 39.4107 23.8531C42.6394 23.5255 45.6342 24.2742 48.5354 25.6312C50.5476 26.5671 52.5597 27.5498 54.5718 28.4856C58.1749 30.217 61.9184 31.2465 65.8959 31.574C67.3465 31.7144 67.4869 31.6208 67.4869 30.1702C67.4401 27.1286 67.4401 24.087 67.4401 21.0922Z" fill="#B4E1FA"/>
<path d="M28.9757 26.7075C28.9289 26.6139 28.8821 26.4735 28.8353 26.4267C27.1039 25.3505 25.3726 24.2742 23.5944 23.2448C21.5355 22.0749 19.383 21.9345 17.1837 22.8236C16.0138 23.2916 14.9844 23.9935 13.9549 24.7422C13.0658 25.3973 12.5043 26.146 12.6915 27.3158C12.7851 27.8773 12.6915 28.4389 12.6915 29.0004C12.6915 30.8721 12.6915 30.9189 14.61 30.6382C19.1958 29.9831 23.6412 28.9068 27.993 27.269C28.3674 27.1286 28.7885 27.0819 28.9757 26.7075Z" fill="#108043"/>
<path d="M40.0658 38.4995C48.4419 38.4995 56.8179 38.4995 65.194 38.4995C67.5337 38.4995 67.3933 38.6399 67.3933 36.2534C67.3933 36.1598 67.3933 36.0194 67.3933 35.9259C67.3465 35.4111 67.1594 35.224 66.6446 35.1772C66.3639 35.1304 66.0831 35.1304 65.8023 35.0836C62.5268 34.8496 59.3916 34.1945 56.3032 33.0246C53.7764 32.0888 51.3899 30.9189 48.9566 29.7491C47.4592 29.0004 46.0086 28.2985 44.4176 27.7838C42.4523 27.1754 40.5337 27.0818 38.5216 27.4562C35.8076 27.9709 33.2807 29.0004 30.7539 29.9831C26.402 31.7612 21.9098 32.9311 17.2773 33.7266C16.0606 33.9605 14.7972 34.1009 13.5806 34.3349C12.9255 34.4285 12.8319 34.5688 12.7851 35.2239C12.7383 35.7855 12.7851 36.347 12.7851 36.9553C12.7851 38.4527 12.8319 38.4995 14.3293 38.4995C14.6568 38.4995 15.0312 38.4995 15.3587 38.4995C23.5476 38.4995 31.8301 38.4995 40.0658 38.4995Z" fill="#50B83C"/>
<path d="M40.253 42.009C31.7833 42.009 23.2668 42.009 14.7972 42.009C14.2825 42.009 13.7677 42.009 13.253 42.0558C12.8786 42.1026 12.6915 42.3366 12.6915 42.7577C12.6915 43.1321 12.8319 43.4596 13.253 43.5064C13.7209 43.5532 14.1421 43.5532 14.61 43.5532C31.5961 43.5532 48.5354 43.5532 65.5215 43.5532C65.9427 43.5532 66.317 43.5532 66.7382 43.5064C67.2061 43.4596 67.3933 43.1789 67.3465 42.6641C67.3465 42.243 67.1125 42.0558 66.6914 42.009C66.1767 41.9622 65.6619 42.009 65.1472 41.9622C56.9115 42.009 48.5822 42.009 40.253 42.009ZM40.1126 48.1858C42.2183 48.1858 44.324 48.1858 46.4297 48.1858C53.7763 48.1858 61.1229 48.1858 68.4696 48.1858C69.0311 48.1858 69.5926 48.139 70.1541 48.0922C70.2477 48.0922 70.3881 47.8582 70.4349 47.7178C70.5285 47.4839 70.3413 47.2031 70.1541 47.2031C69.5926 47.1095 69.0311 47.1095 68.4696 47.1095C49.7521 47.1095 31.0814 47.1095 12.3639 47.1095C11.8024 47.1095 11.2409 47.1095 10.6325 47.1095C10.3986 47.1095 10.1646 47.1095 9.97744 47.2031C9.74347 47.2967 9.60309 47.4839 9.69667 47.7178C9.74347 47.8582 9.88385 48.0922 9.97744 48.0922C10.539 48.139 11.1005 48.1858 11.662 48.1858C21.1611 48.1858 30.6135 48.1858 40.1126 48.1858Z" fill="#FFEA8A"/>
<path d="M27.6187 52.0697C27.5252 51.9293 27.4784 51.7889 27.3848 51.7421C26.9168 51.5082 26.2617 51.6953 26.0746 52.1165C25.981 52.3037 25.8874 52.5376 25.8406 52.7716C23.5477 60.2118 21.3016 67.6988 19.0087 75.139C18.9151 75.4197 18.8215 75.7005 18.8215 75.9813C18.8215 76.1217 18.9151 76.3556 19.0087 76.4024C19.3363 76.6364 20.085 76.496 20.2253 76.1684C20.3657 75.8877 20.5061 75.5601 20.5997 75.2326C21.3016 72.9397 22.0035 70.6468 22.7054 68.4007C24.2964 63.2534 25.8406 58.0593 27.4316 52.912C27.4784 52.5844 27.572 52.3037 27.6187 52.0697ZM61.4038 75.9345C61.357 75.7005 61.2634 75.3729 61.1698 75.0454C58.9237 67.652 56.6308 60.2118 54.3847 52.8184C54.2911 52.5376 54.1976 52.2569 54.0572 52.0229C53.87 51.6953 53.2149 51.555 52.8405 51.7889C52.5598 51.9761 52.6066 52.2569 52.7002 52.5376C52.747 52.7248 52.7937 52.8652 52.8405 53.0524C55.0866 60.3522 57.2859 67.652 59.532 74.9518C59.6256 75.2794 59.7192 75.6069 59.8596 75.9345C60.0468 76.4024 60.3743 76.5428 60.9826 76.496C61.2166 76.4024 61.357 76.3088 61.4038 75.9345ZM40.7678 60.6797C40.7678 58.2464 40.7678 55.7664 40.7678 53.3331C40.7678 52.9588 40.7678 52.5376 40.721 52.1633C40.6742 51.8357 40.4402 51.6953 40.1127 51.6953C39.7851 51.6953 39.5511 51.7889 39.4576 52.1165C39.364 52.3972 39.364 52.678 39.364 52.9588C39.364 58.1061 39.364 63.2066 39.364 68.3539C39.364 68.5879 39.364 68.8218 39.4108 69.0558C39.4576 69.4301 39.7383 69.6641 40.1127 69.6173C40.4402 69.5705 40.6742 69.4301 40.6742 69.1026C40.721 68.7282 40.721 68.3071 40.721 67.9327C40.7678 65.4995 40.7678 63.0662 40.7678 60.6797ZM40.0191 9.39384C41.5633 9.39384 43.0607 9.39384 44.6049 9.39384C45.1664 9.39384 45.4471 9.15987 45.4003 8.73873C45.3536 8.31759 45.026 8.224 44.6516 8.224C44.4177 8.224 44.1837 8.224 43.9497 8.224C41.3293 8.224 38.7089 8.224 36.1352 8.224C35.8544 8.224 35.5737 8.224 35.2929 8.27079C34.9654 8.31759 34.7782 8.50476 34.7782 8.83232C34.7782 9.15987 34.9654 9.34705 35.2929 9.39384C35.5737 9.44063 35.8544 9.44063 36.1352 9.44063C37.3986 9.39384 38.7089 9.39384 40.0191 9.39384Z" fill="#EEC200"/>
<path d="M70.9964 26.3332C70.9964 31.1997 70.9964 36.0194 70.9964 40.886C70.9964 41.3539 70.9964 41.8219 70.9964 42.243C71.0432 43.2257 71.0432 43.2257 71.9791 43.5532C72.0727 43.6 72.2131 43.6 72.3067 43.6468C73.3829 44.0212 73.9912 44.8167 74.0848 45.9397C74.1316 47.016 74.1784 48.0922 74.0848 49.1685C73.9912 50.6659 73.0554 51.5082 71.5112 51.6485C71.1368 51.6953 70.7157 51.6485 70.2945 51.6485C66.8786 51.6485 63.4627 51.6485 60.0467 51.6485C59.6256 51.6485 59.2512 51.6485 58.8301 51.6485C57.941 51.6953 57.8006 51.8825 58.0346 52.678C58.9237 55.6728 59.8595 58.6676 60.7954 61.6624C62.1524 66.1546 63.5094 70.6 64.8665 75.0922C65.0068 75.5133 65.1472 75.9813 65.2408 76.4024C65.5216 77.9934 64.6325 79.3972 63.0415 79.7715C61.6377 80.0991 60.1871 80.0523 58.7833 79.7715C57.8942 79.5844 57.2391 79.0229 56.8647 78.1806C56.6308 77.7126 56.4904 77.1979 56.35 76.73C54.0103 69.0558 51.6706 61.3348 49.2842 53.6607C48.5823 51.4146 48.863 51.6017 46.5233 51.6017C46.0086 51.6017 45.4939 51.6017 44.9791 51.6485C44.6048 51.6953 44.324 51.9293 44.324 52.3036C44.2772 52.8184 44.2772 53.3331 44.2772 53.8478C44.2772 58.808 44.2772 63.7681 44.2772 68.7282C44.2772 69.243 44.2772 69.7577 44.2304 70.2724C44.0433 71.8166 42.967 72.8929 41.4228 72.9865C40.4402 73.0332 39.4575 73.0332 38.5216 72.9865C37.071 72.8461 35.9948 71.8166 35.8076 70.366C35.7608 69.8513 35.7608 69.3366 35.7608 68.8218C35.7608 63.7681 35.7608 58.6676 35.7608 53.6139C35.7608 51.6485 35.7608 51.6485 33.7955 51.6485C31.0346 51.6485 31.5026 51.3678 30.7071 53.9414C28.3674 61.6156 25.9809 69.3366 23.6412 77.0107C23.5944 77.2447 23.5476 77.4319 23.454 77.6658C23.0329 79.0228 22.097 79.7715 20.74 79.9119C19.7106 80.0055 18.6811 80.0055 17.6516 79.9119C15.5459 79.678 14.4229 78.0402 14.9844 76.028C15.5459 73.8755 16.2478 71.7698 16.9029 69.6173C18.5407 64.1425 20.2253 58.7144 21.9099 53.2395C22.3778 51.6485 22.3778 51.6017 20.74 51.6017C17.1369 51.6017 13.5338 51.6017 9.97746 51.6017C9.46273 51.6017 8.948 51.6017 8.43327 51.555C7.21664 51.4146 6.32756 50.6191 6.14038 49.3556C5.95321 48.0922 5.95321 46.8288 6.14038 45.6122C6.28076 44.5827 6.93587 43.8808 7.91854 43.5532C8.15251 43.5064 8.33968 43.4596 8.57365 43.3661C8.948 43.2725 9.13518 42.9917 9.13518 42.6174C9.18197 41.7751 9.18197 40.886 9.18197 40.0437C9.18197 30.4978 9.18197 20.9987 9.18197 11.4528C9.18197 10.8912 9.18197 10.3297 9.18197 9.72139C9.13518 8.1304 10.539 6.91377 12.0364 6.86697C12.5511 6.86697 13.0658 6.86697 13.5806 6.86697C18.7279 6.86697 23.8284 6.86697 28.9757 6.86697C29.3968 6.86697 29.7712 6.86697 30.1923 6.86697C30.7071 6.86697 31.0814 6.72659 31.2686 6.21186C31.7365 4.94843 32.6724 4.4805 33.9358 4.52729C35.2929 4.57408 35.5268 4.4805 35.48 3.02989C35.48 2.74913 35.48 2.46837 35.5268 2.18761C35.714 0.877382 36.5095 0.081889 37.7729 0.0350953C39.3171 -0.0116984 40.8613 -0.0116984 42.4055 0.0350953C43.6689 0.081889 44.4644 0.970969 44.6048 2.2344C44.6984 2.9363 44.324 3.82538 44.9324 4.34012C45.4471 4.80805 46.2426 4.4805 46.9445 4.57408C47.8804 4.71446 48.5355 5.2292 48.8162 6.11828C49.0034 6.6798 49.4245 6.91377 49.9861 6.86697C50.454 6.86697 50.8752 6.86697 51.3431 6.86697C56.4904 6.86697 61.5909 6.86697 66.7382 6.86697C67.2997 6.86697 67.8613 6.86697 68.4228 6.91377C69.6862 7.10094 70.6221 7.99002 70.8093 9.25345C70.9029 9.90856 70.9029 10.6105 70.9029 11.3124C70.9964 16.4129 70.9964 21.373 70.9964 26.3332ZM67.4401 21.0923C67.4401 18.2378 67.4401 15.3834 67.4401 12.529C67.4401 12.0611 67.4401 11.5931 67.3933 11.172C67.3465 10.8444 67.1594 10.6105 66.8318 10.6105C66.3639 10.5637 65.9427 10.5637 65.4748 10.5637C60.6082 10.5637 55.7885 10.5637 50.9219 10.5637C50.5944 10.5637 50.22 10.5637 49.8925 10.5637C49.3778 10.5637 49.0502 10.7509 48.863 11.2656C48.4419 12.529 47.4124 12.9034 46.149 12.9034C42.1247 12.9034 38.0537 12.8566 34.0294 12.9034C32.6724 12.9034 31.6897 12.529 31.2218 11.172C31.0814 10.7041 30.7071 10.6105 30.2859 10.5637C30.0052 10.5637 29.7244 10.5637 29.4436 10.5637C24.4367 10.5637 19.4298 10.5637 14.3761 10.5637C14.0485 10.5637 13.6742 10.5637 13.3466 10.6105C12.9723 10.6573 12.7383 10.8912 12.7383 11.2656C12.7383 11.5931 12.6915 11.9675 12.6915 12.295C12.6915 14.4476 12.6915 16.6469 12.6915 18.7994C12.6915 19.4545 12.5511 20.1564 12.8319 20.8115C13.6742 20.9519 14.1421 20.2032 14.7972 20.016C15.0312 19.9692 15.2184 19.8288 15.4055 19.7352C18.8215 18.2378 22.1438 18.3782 25.4194 20.25C26.2617 20.7179 27.0572 21.2794 27.8994 21.7942C29.6308 22.8704 31.5026 23.7595 33.5147 24.321C34.4506 24.555 35.3864 24.6018 36.3691 24.3678C37.3518 24.1338 38.3812 23.9467 39.4107 23.8531C42.6395 23.5255 45.6343 24.2742 48.5355 25.6312C50.5476 26.5671 52.5597 27.5498 54.5719 28.4857C58.175 30.217 61.9185 31.2465 65.8959 31.574C67.3465 31.7144 67.4869 31.6208 67.4869 30.1702C67.4401 27.1286 67.4401 24.0871 67.4401 21.0923ZM40.0658 38.4995C48.4419 38.4995 56.818 38.4995 65.194 38.4995C67.5337 38.4995 67.3933 38.6399 67.3933 36.2534C67.3933 36.1598 67.3933 36.0194 67.3933 35.9259C67.3465 35.4111 67.1594 35.224 66.6446 35.1772C66.3639 35.1304 66.0831 35.1304 65.8023 35.0836C62.5268 34.8496 59.3916 34.1945 56.3032 33.0247C53.7764 32.0888 51.3899 30.9189 48.9566 29.7491C47.4592 29.0004 46.0086 28.2985 44.4176 27.7838C42.4523 27.1754 40.5337 27.0819 38.5216 27.4562C35.8076 27.9709 33.2807 29.0004 30.7539 29.9831C26.4021 31.7612 21.9099 32.9311 17.2773 33.7266C16.0606 33.9605 14.7972 34.1009 13.5806 34.3349C12.9255 34.4285 12.8319 34.5688 12.7851 35.224C12.7383 35.7855 12.7851 36.347 12.7851 36.9553C12.7851 38.4527 12.8319 38.4995 14.3293 38.4995C14.6568 38.4995 15.0312 38.4995 15.3587 38.4995C23.5476 38.4995 31.8301 38.4995 40.0658 38.4995ZM40.253 42.009C31.7833 42.009 23.2669 42.009 14.7972 42.009C14.2825 42.009 13.7678 42.009 13.253 42.0558C12.8787 42.1026 12.6915 42.3366 12.6915 42.7577C12.6915 43.1321 12.8319 43.4596 13.253 43.5064C13.721 43.5532 14.1421 43.5532 14.61 43.5532C31.5961 43.5532 48.5355 43.5532 65.5216 43.5532C65.9427 43.5532 66.3171 43.5532 66.7382 43.5064C67.2062 43.4596 67.3933 43.1789 67.3465 42.6642C67.3465 42.243 67.1126 42.0558 66.6914 42.009C66.1767 41.9622 65.662 42.009 65.1472 41.9622C56.9115 42.009 48.5823 42.009 40.253 42.009ZM28.9757 26.7075C28.9289 26.6139 28.8821 26.4735 28.8353 26.4267C27.104 25.3505 25.3726 24.2742 23.5944 23.2448C21.5355 22.0749 19.383 21.9345 17.1837 22.8236C16.0139 23.2916 14.9844 23.9935 13.9549 24.7422C13.0658 25.3973 12.5043 26.146 12.6915 27.3158C12.7851 27.8773 12.6915 28.4389 12.6915 29.0004C12.6915 30.8721 12.6915 30.9189 14.61 30.6382C19.1958 29.9831 23.6412 28.9068 27.993 27.269C28.3674 27.1286 28.7885 27.0819 28.9757 26.7075ZM40.1126 48.1858C42.2183 48.1858 44.324 48.1858 46.4298 48.1858C53.7764 48.1858 61.123 48.1858 68.4696 48.1858C69.0311 48.1858 69.5926 48.139 70.1542 48.0922C70.2477 48.0922 70.3881 47.8582 70.4349 47.7179C70.5285 47.4839 70.3413 47.2031 70.1542 47.2031C69.5926 47.1096 69.0311 47.1096 68.4696 47.1096C49.7521 47.1096 31.0814 47.1096 12.3639 47.1096C11.8024 47.1096 11.2409 47.1096 10.6326 47.1096C10.3986 47.1096 10.1646 47.1096 9.97746 47.2031C9.7435 47.2967 9.60311 47.4839 9.6967 47.7179C9.7435 47.8582 9.88388 48.0922 9.97746 48.0922C10.539 48.139 11.1005 48.1858 11.662 48.1858C21.1612 48.1858 30.6135 48.1858 40.1126 48.1858ZM27.6187 52.0697C27.5251 51.9293 27.4783 51.7889 27.3847 51.7421C26.9168 51.5082 26.2617 51.6953 26.0745 52.1165C25.9809 52.3036 25.8873 52.5376 25.8405 52.7716C23.5476 60.2118 21.3015 67.6988 19.0086 75.139C18.9151 75.4197 18.8215 75.7005 18.8215 75.9813C18.8215 76.1216 18.9151 76.3556 19.0086 76.4024C19.3362 76.6364 20.0849 76.496 20.2253 76.1684C20.3657 75.8877 20.506 75.5601 20.5996 75.2326C21.3015 72.9397 22.0034 70.6468 22.7053 68.4007C24.2963 63.2534 25.8405 58.0593 27.4315 52.912C27.4783 52.5844 27.5719 52.3036 27.6187 52.0697ZM61.4037 75.9345C61.3569 75.7005 61.2634 75.3729 61.1698 75.0454C58.9237 67.652 56.6308 60.2118 54.3847 52.8184C54.2911 52.5376 54.1975 52.2569 54.0571 52.0229C53.8699 51.6953 53.2148 51.555 52.8405 51.7889C52.5597 51.9761 52.6065 52.2569 52.7001 52.5376C52.7469 52.7248 52.7937 52.8652 52.8405 53.0523C55.0866 60.3522 57.2859 67.652 59.532 74.9518C59.6256 75.2794 59.7192 75.6069 59.8595 75.9345C60.0467 76.4024 60.3743 76.5428 60.9826 76.496C61.2166 76.4024 61.3569 76.3088 61.4037 75.9345ZM40.7677 60.6797C40.7677 58.2464 40.7677 55.7664 40.7677 53.3331C40.7677 52.9588 40.7677 52.5376 40.7209 52.1633C40.6741 51.8357 40.4402 51.6953 40.1126 51.6953C39.785 51.6953 39.5511 51.7889 39.4575 52.1165C39.3639 52.3972 39.3639 52.678 39.3639 52.9588C39.3639 58.1061 39.3639 63.2066 39.3639 68.3539C39.3639 68.5879 39.3639 68.8218 39.4107 69.0558C39.4575 69.4301 39.7383 69.6641 40.1126 69.6173C40.4402 69.5705 40.6741 69.4301 40.6741 69.1026C40.7209 68.7282 40.7209 68.3071 40.7209 67.9327C40.7677 65.4995 40.7677 63.0662 40.7677 60.6797ZM40.019 9.39383C41.5632 9.39383 43.0606 9.39383 44.6048 9.39383C45.1663 9.39383 45.4471 9.15987 45.4003 8.73872C45.3535 8.31758 45.0259 8.22399 44.6516 8.22399C44.4176 8.22399 44.1837 8.22399 43.9497 8.22399C41.3292 8.22399 38.7088 8.22399 36.1351 8.22399C35.8544 8.22399 35.5736 8.22399 35.2929 8.27079C34.9653 8.31758 34.7781 8.50475 34.7781 8.83231C34.7781 9.15987 34.9653 9.34704 35.2929 9.39383C35.5736 9.44063 35.8544 9.44063 36.1351 9.44063C37.3986 9.39383 38.7088 9.39383 40.019 9.39383ZM40.2062 3.63821C39.4575 3.63821 39.1767 3.7318 39.1299 4.10615C39.0831 4.52729 39.4575 4.71446 40.2998 4.66767C40.6273 4.66767 41.0017 4.62088 41.0485 4.19973C41.0953 3.87218 40.8145 3.685 40.2062 3.63821Z" fill="#454F5B"/>
</svg>
